<svg width="60" height="60" viewBox="0 0 60 60" fill="none" xmlns="http://www.w3.org/2000/svg">
<g clip-path="url(#clip0_51_1749)">
<g clip-path="url(#clip1_51_1749)">
<path d="M19.5894 32.2907C19.8397 32.2357 20.0583 32.082 20.1977 31.8641C20.337 31.6462 20.3846 31.3813 20.3302 31.1279L19.7638 28.4868C19.6902 28.145 19.4432 27.8686 19.1136 27.762C18.7839 27.6553 18.4248 27.7345 18.1688 27.9696C17.9128 28.2047 17.8006 28.5602 17.8743 28.9019L18.4407 31.543C18.537 31.9926 18.9301 32.3137 19.3843 32.3137C19.4534 32.3137 19.5225 32.3068 19.5905 32.2907H19.5894Z" fill="#A60000"/>
<path d="M20.9091 38.4617C21.1594 38.4067 21.3781 38.253 21.5174 38.0351C21.6567 37.8172 21.7032 37.5512 21.6488 37.2977L21.0824 34.6566C20.9691 34.1279 20.4548 33.7931 19.9326 33.9078C19.4104 34.0224 19.0796 34.5431 19.1929 35.0718L19.7593 37.7129C19.8556 38.1624 20.2487 38.4835 20.7029 38.4835C20.772 38.4835 20.8411 38.4767 20.9091 38.4617Z" fill="#A60000"/>
<path d="M22.4068 40.8253C22.3343 40.4836 22.0862 40.2072 21.7577 40.1005C21.4292 39.9939 21.069 40.073 20.8129 40.307C20.5569 40.5421 20.4448 40.8964 20.5173 41.2382L21.0837 43.8793C21.18 44.3288 21.5731 44.6499 22.0273 44.6499C22.0964 44.6499 22.1655 44.6431 22.2335 44.627C22.7546 44.5123 23.0854 43.9917 22.9732 43.4641L22.4068 40.8242V40.8253Z" fill="#A60000"/>
<path d="M48.2406 28.4351C48.2168 25.2665 50.155 22.4213 53.089 21.3169C53.9545 20.9958 54.4484 20.0737 54.2422 19.1643L53.4481 15.4383C53.2215 14.4303 52.236 13.7938 51.238 14.0117L46.0961 15.1401C45.3542 12.3087 46.3499 9.30287 48.628 7.49665C49.3326 6.92668 49.5252 5.92437 49.0811 5.12963L47.2754 1.94493C47.0353 1.51144 46.6331 1.19492 46.1596 1.06418C45.694 0.933443 45.1956 1.0011 44.7798 1.25226L5.9051 23.9591L2.46814 24.7137C1.9867 24.8181 1.56642 25.1128 1.30021 25.5314C1.02834 25.9511 0.93658 26.4638 1.0442 26.9535L1.84283 30.6588C2.02295 31.5751 2.8499 32.2104 3.76974 32.1405C7.49556 31.8675 10.8532 34.4112 11.6451 38.1073C12.4369 41.8035 10.4205 45.5261 6.9167 46.8392C6.05802 47.1672 5.56865 48.0846 5.76916 48.9917L6.54174 52.6111C6.72978 53.4758 7.48537 54.0928 8.3599 54.0962C8.49244 54.0962 8.62385 54.0813 8.75299 54.0538L29.3362 49.5353C32.1569 56.1673 39.092 59.9851 46.1233 58.7775C53.1547 57.5699 58.4585 51.65 58.9604 44.4481C59.4622 37.2461 55.034 30.6301 48.2394 28.434L48.2406 28.4351ZM45.6476 3.00573L47.3547 6.01841C44.5465 8.29483 43.3083 12.0208 44.1874 15.553L12.105 22.5967L45.6476 3.00458V3.00573ZM24.0981 48.6924L23.7367 47.002C23.6631 46.6603 23.4161 46.3839 23.0865 46.2772C22.7568 46.1706 22.3966 46.2497 22.1417 46.4848C21.8857 46.7199 21.7735 47.0754 21.846 47.4172L22.2085 49.1076L8.41541 52.1294L7.66888 48.6454C12.0268 46.963 14.5167 42.3104 13.5289 37.6956C12.5411 33.0809 8.37123 29.8893 3.7165 30.1852L2.94392 26.6106L16.7314 23.5841L17.1177 25.3709C17.214 25.8204 17.607 26.1415 18.0613 26.1415C18.1304 26.1415 18.1995 26.1346 18.2675 26.1186C18.5178 26.0635 18.7365 25.9099 18.8758 25.692C19.0151 25.4741 19.0627 25.2092 19.0083 24.9557L18.622 23.169L51.5722 15.9372L52.3345 19.5106C48.8455 20.8604 46.4756 24.1736 46.3001 27.95C41.0336 26.9603 35.6369 28.8067 32.0447 32.8297C28.4526 36.8516 27.1782 42.4733 28.6803 47.6786L24.0992 48.6913L24.0981 48.6924ZM43.5213 57.0332C38.0498 57.0332 33.1164 53.696 31.0218 48.5789C28.9272 43.4618 30.085 37.5706 33.9547 33.6531C37.8244 29.7356 43.6425 28.5647 48.6982 30.684C53.754 32.8033 57.0493 37.7977 57.0493 43.338C57.0414 50.8989 50.9888 57.0263 43.5201 57.0343L43.5213 57.0332Z" fill="#A60000"/>
<path d="M40.6474 50.3748C40.6384 50.3748 40.6293 50.3748 40.6202 50.3748C40.3268 50.3668 40.0527 50.2223 39.876 49.9838L34.6673 42.9355C34.349 42.5043 34.4362 41.8942 34.861 41.5708C35.287 41.2485 35.8907 41.3368 36.2091 41.7669L40.6905 47.8301L50.0849 36.5087C50.427 36.0959 51.0342 36.0431 51.442 36.3895C51.8487 36.7358 51.9019 37.3505 51.5598 37.7634L41.3849 50.0262C41.2014 50.2475 40.9318 50.3737 40.6474 50.3737V50.3748Z" fill="#A60000"/>
</g>
</g>
<defs>
<clipPath id="clip0_51_1749">
<rect width="60" height="60" fill="white" transform="translate(0 60) rotate(-90)"/>
</clipPath>
<clipPath id="clip1_51_1749">
<rect width="58" height="58" fill="white" transform="translate(1 1)"/>
</clipPath>
</defs>
</svg>
